<svg xmlns="http://www.w3.org/2000/svg" xmlns:xlink="http://www.w3.org/1999/xlink" x="0" y="0" version="1.1" viewBox="0 0 1023.2 1024" xml:space="preserve" style="enable-background:new 0 0 1023.2 1024"><style type="text/css">.st1{fill:#ae95c8}.st2{fill:#92ced4}.st3{fill:#842fd7}.st5{fill:#c5e3b3}.st9{fill:#dab8e9}.st13{fill:#751c9e}</style><switch><g><g id="_x32_019II"><g><path d="M557.9,15.5c-0.4-0.6-4.8-6-6.4-5.7c-9.7-5.8-26.7,0.8-27.1,11.3c0,5.9,4.2,9.4,1.9,10.6 c-2.7,2.8-37,35.3-37,35.3l41.2,37l0.7,235.8h9.5c0,0-0.7-236.7-0.7-238.7c0.3-1.8-38.1-33.9-36.5-35.3 c4.3-3.5,27.6-28.2,29.5-29.1c1.9,1.2,12.5,4.3,17.6,1.5C559.7,34.5,561.3,19.9,557.9,15.5z M548,31.2c-6.1,4-15.1,1-16.4-6.5 c-1.2-7.4,5.1-12.9,12.2-11.4c2.2,0.4,4.1,1.6,5.4,3.3c0.9,0.7,1.7,1.5,2.3,2.5C554.4,23.3,552,28.5,548,31.2z" class="st5"/><path d="M439.4,78.8c-2-2.7,4.8-4.7,3.7-11.5c-0.1-0.4-0.3-8.2-2.8-10.7c-0.4-0.4-5.9-4.9-8.6-5.6 c-1.2-0.4-8-1.8-13.5,0.5c-2.7,1.2-7.7,5.2-10.2,11.3c-2.6,6.3,3.5,14.9,4.3,16c5.8,7,16,4,17.5,4.3 c3.6,2.9,44.1,38.6,44.1,38.6v298.2h9.5l0.1-301.9C483.6,118,443.2,82.3,439.4,78.8z M429,75.8c-0.8,0.2-1.6,0.3-2.4,0.2 c-0.6,0.3-1.2,0.4-1.9,0.4c-1.4-0.2-2.7-0.6-3.8-1.4c-0.4-0.2-0.7-0.4-1.1-0.5c-2.4-1.6-3.8-4.1-3.8-6.9c0-0.2,0-0.4,0-0.5 c-0.3-2,0.4-4.2,2.4-5.9c1.2-1.1,2.6-1.8,4.1-2.2c1.2-0.4,2.6-0.6,3.9-0.5s2.5,0.4,3.5,1c2.6,1.1,4.7,3.2,5.3,6.3 C436.4,70.2,433.8,74.7,429,75.8z" class="st5"/><path d="M273.2,279l-29.1,52.7c0,1.9,0.1,140.1,0.2,142.8c3.5,0,6.6-0.4,10.2-0.4c0.4-0.6-0.9-141.1-0.9-141.1 l24.8-43.9" class="st2"/><path d="M824.1,843.1l0.2-20.2l0.3-14l50.7-29.6c0,0,1-30.8,0-32.1c-1.9-2.3-63.6-45.8-63.6-45.8V562.1l9.4,0.3 l0.3,135.3l63.6,44.5v43l-51.5,29.1l-0.1,7.9l-0.1,20.7c0,0,10.1,7.4,11.3,12.7c-0.1,3.5,0.1,6.6-0.9,9.7c0.2,2.1-2.7,7.2-4.7,8 c-1.9,1.6-6.3,2.1-8.8,3.1c-5.7,0.1-9.9-1.7-11.2-3.6c-7.7-7-8-15.1-0.8-24.8C819.5,846.1,824.1,843.1,824.1,843.1z M820,865.7 c0,0.1,0,0.2,0,0.3c0.1,0.7,0.5,1.3,1.1,1.9l0,0c1,1.3,2.1,2.5,3.8,2.9c0.1,0,0.2,0,0.4,0.1c3.6,1.7,8.5,0.1,11.3-2.7 c3-3,3.2-7.6,1.2-11.3c-1.8-3.3-5.2-5.8-9-6c-4.5-0.2-8.4,3.8-9,8.2c-0.1,0.7-0.1,1.5,0,2.2C819.3,862.6,819.4,864.2,820,865.7z" class="st1"/><path d="M581.5,709.5c-0.4-1.4-0.6-48.8-0.6-48.8H571l0.7,54.6l31.7,21.4l-0.4,31.7l-26.6,15.3l-37.8-30.8 c0,0-0.8-46.1,0-46.7c4.6-2.8,11-6.9,10.8-12.9c0.2-2-0.3-9.2-1.9-11.4c-1.2-3.1-10.4-6.6-13.7-6.7c-3.4,0.3-11.5,4.3-12.1,6 c-1.1,1.3-2.4,12.1-1.4,13.8c-1.2,2.8,9,11.3,9,11.3l0.2,51.2c0,0,44.9,37.8,46.1,37.5c0.9,0,37.6-21.4,37.6-21.4v-43.4 C613,730.1,583.1,710.5,581.5,709.5z M534.3,700.4c-3.6,0.7-7.2-2.3-8.5-6c-1.5-4.1-0.2-9,3.9-10.9c4.9-2.4,10.7-0.5,13.4,4.2 c2.5,4.4,1.3,10.3-3.6,12.3C537.7,700.5,536,700.7,534.3,700.4z" class="st3"/><path d="M381.9,128c-0.4-5.1-11.9-9.4-12.7-9c-7.6,0.4-14.5,1-17.9,6.7c-2.4,3.1-3.1,16.3,0.7,20.4 c0.4,0.4,6.6,6.8,6.9,6.5c0,0,0.3,47.6-1.1,52.6c-2.5,2-28.2,42.1-28.2,42.1l-0.7,38.1l13,24.8l-0.6,161.2h9.9l0.9-162.6 l-12.9-24.3c0,0,0.1-34.3,1.6-36.2c0.4-0.3,28.6-40.8,28.2-43.2c-0.8-4.5,0.4-51.4,0.4-51.4s9.9-5.7,10.8-7.1 C383.3,141.7,382.6,129.8,381.9,128z M372.5,144.2c-2.2,2.4-5.4,3.6-8.7,3c-3.5-0.7-6.5-3.7-7.6-7c-2.3-6.5,2.1-17.8,10.6-14.6 c0.5,0.2,1,0.4,1.4,0.8c1.4,0.2,2.7,0.7,4,1.5C378,131.6,376.7,139.8,372.5,144.2z" class="st3"/><path d="M696.7,72.4c1.3-3.2,2.8-5.3,4.8-6.8c2.2-1.7,9.4-3.8,12.2-3.7c3.6,0.2,11,4.8,13.3,7.5 c2.3,2.7,3.6,12.6,4.7,13.6c1.2,0.5,49.2,36.6,50,39.3c1.1,1.3-0.2,355.2-0.2,355.2h-10l-0.2-353.1l-46.2-34 c0,0-17.4,4.9-22,0.4C698.5,86.5,693.9,79,696.7,72.4z M705.4,82.9c3,2.9,7.3,4.9,11.4,3.4c3.8-1.4,6.1-5.1,6.4-9 c0.3-4.1-2.3-7.6-6-9c-3.4-1.2-7.6-0.6-10.4,1.7c-1,0.5-1.9,1.2-2.6,1.9C701.1,75.3,702.3,79.9,705.4,82.9z" class="st1"/><path d="M179.1,428.4c-7.6-0.7-35.8-1-35.8-1l-36.3,33c0,0-50.9,1.2-52.6,0.1c-2-3.9-5.5-8.9-9.7-10.5 c-6.4-2.5-12.5-2.1-17.8,2.1c-5.5,4.4-8.2,10.4-7.6,17.5c0.8,4.9,4.3,9.8,10.1,10.5c5.4,1.2,11,0.8,16.2-0.8 c2.3,0.3,7.5-8.6,8.9-8.8c7.1-1.1,55.6-0.5,57.9-0.9c1.4,0.1,36.2-32.2,36.2-32.2l30.8,0.3C178.5,436.6,179.5,428.5,179.1,428.4 z M41.9,474.2c-4.1,1.9-9.7,1.6-13.1-1.4c-3.4-2.9-3.2-6.8-1.5-10.3c0.4-1.3,1.2-2.7,2.4-3.6c4.7-4.2,13.3-3.1,16.3,2.7 C48.5,466.2,46.8,472,41.9,474.2z" class="st1"/><path d="M229.5,111c5.1,3.4,8.5,12.2,4.5,22.2c-0.3,1.7-3.2,5-4.7,5.7c-3.9,2.7-7.1,0.4-7.5,4.8 c-0.4,3.1,0.2,50.1,0.2,50.1l-30.8,41.7l0.5,194.7c0,0-7.9,0.5-10.4,0c0.1-4.9,0-198.7,0-198.7l30.6-39.6l0.2-49.4 c0,0-6.8-5.8-7.4-7.3c-4.2-12.7-3.6-13.1,3-22.2c2.7-3.7,5.6-4.5,9.7-6C220.4,106,227.7,108,229.5,111z M214.1,115.4 c-1.4,0.9-2.6,2.3-3.4,4c-1.9,2-2.8,4.8-1.9,8c0.3,1.1,0.9,2,1.6,2.8c0.4,0.8,0.9,1.6,1.5,2.2c1.7,1.7,3.9,2.4,6.1,2.1 c3.5,0.5,7.2-1.4,8.9-4.7c1.7-3.1,1.5-6.5,0.1-9c-0.2-0.6-0.4-1.2-0.7-1.8c-1.5-2.7-4.3-4.3-7.3-4.3 C217.4,114.3,215.7,114.5,214.1,115.4z" class="st3"/><path d="M457.1,830.8c0,0,2.1-167.1,1.2-170.2l-8.7,0.3c-1.2,1.3-1.9,165.2-1.9,165.2s-20.3,15.2-26.9,20.2 c-1.6,0.7-0.1,121.3-1.7,123.5c-1.8,1-7.5,8-8.4,9.6c-3.3,10,5.1,22.4,8.2,23c5.6,0.4,21.1,0.5,20.8-8.2 c1.4-6.5,0.2-17.1-5.6-20.5c-1.4-0.9-4.4-4.1-4.4-4.1l0.7-118.3L457.1,830.8z M435.3,987.7c0,3.5-1.8,6.7-5.4,7.2 c-0.9,0.1-1.7,0-2.6-0.2c-0.9,0.4-1.9,0.5-2.8,0.5c-0.2,0-0.4,0-0.5,0c-4.4-0.3-8.2-4.4-8.4-9c-0.3-4,1.9-8.2,6-9.2 C428.1,975.3,435.2,981,435.3,987.7z" class="st1"/><path d="M619.9,63.8c-1-1.8-5.2-3.5-7.4-3.7c-4.8-0.4-9.9-0.5-10.2-0.4c-5.4,1.5-12.9,8.2-12.7,10.2 c-1.9,5.2-0.4,18.6,0.4,19.4c2.2,4.8,10.4,6,10.9,10.2c0.8,3.8-0.2,372.2-0.2,372.2l10.6,0.1c0,0,0.1-369.6,0.9-372.7 c0.2-1,12.1-7.3,11.8-9.5C626.3,83.7,625.3,69.7,619.9,63.8z M617.7,80.9c-0.2,0.6-0.4,1.2-0.7,1.8c-1.2,5-5.3,8.6-10.4,7.1 c-1.3,0.1-2.7,0-4.1-0.4c-11.4-3.6-7.3-23.7,4.7-22.2c3.4,0.4,6,2.1,7.8,4.6C617.4,74.1,618.7,77.3,617.7,80.9z" class="st2"/><path d="M214.8,703.4l-44,37l-44.3-0.2c0,0-3.3-10.2-8.7-12.6c-5.4-2.3-16.8-2.7-21.3,0.9c-6.3,5-7.5,20.3-2.7,27 c4.3,5.8,18.5,6.6,24.6,2.9c1.9-1.1,7.5-7.1,7.5-7.1l48.7-0.9l29.9-24.9 M118.4,748.1c-1.6,4.6-6.8,7-11.4,6.2 c-3-0.5-5.7-2.3-7.6-4.6c-1-0.9-1.7-2-2.1-3.4c-0.1-0.4-0.2-0.7-0.3-1.1c-1-3.2-0.5-6.6,2-9c3.2-2.9,8.3-3.2,12-1.2 C116.2,737.2,120.4,742.7,118.4,748.1z" class="st2"/><path d="M752.7,322.8l-5.5-4.9c-2.9-2.1-18.7-1.7-22.9,0.7c-3.4,1.9-6.8,9.7-9.3,12.2c-3.5,0.1-43.8-0.7-43.8-0.7 s-44.8,47.4-47.1,53.5c-0.1,1.5-0.2,87.1-0.2,87.1h11.8v-86.4l41.4-44.7c0,0,37,1.1,37.9,1.2c1.6,1.4,7.3,11.2,10.4,12.6 c3.3,1.5,10.8,1.7,14.3,1.1c2.8-0.5,8.2-3.6,10.1-5.8c1.7-1.9,3-7,3.4-9.6C753.7,334.6,755.2,327.5,752.7,322.8z M745.3,341.8 c-1.5,2.3-4,4.1-6.6,4.3c-1.8,1-3.7,1.5-5.8,1.4c-7.2-0.2-12.1-7.6-10.2-14.4c1.4-5.2,6.6-8.8,12-8.4c1.1-0.4,2.3-0.4,3.5-0.1 c3.5,1,6.7,4.3,7.3,8C747,335.5,747.2,338.8,745.3,341.8z" class="st3"/><path d="M863.6,341.7c5.9-1.2,12.9,2.7,15.8,9.9c0.8,1.7,46.8,0.1,55.3,0.2c2.7,0,46.1,32.9,46.1,32.9L957.1,420 c0,0,6.1,13.8,1.6,18.4c-3.6,3.8-10.1,8.9-15.8,7c-7.6-2.6-11.5-8.3-13.2-15.7c-1.2-4.9,2.5-7.9,5.2-10.9c2-2.3,5.1-3.4,8.1-4.3 c1.2-0.4,3.5,0.2,4.3-0.7c6.9-7.4,18.6-27,18.6-27l-34.3-24.5c0,0-49.8-0.7-51.5,0.1c-2.3,7.8-8.2,12.7-14.8,12.1 c-7.8-0.8-15.7-8.3-16.4-15.9C848.3,352.4,856.2,343.2,863.6,341.7z M953.4,424c-0.4-0.3-0.7-0.5-1.2-0.7 c-1-1.3-2.5-2.2-4.2-2.5c-0.3-0.2-0.6-0.4-0.9-0.5c-4-2-9.2-1.4-11.6,2.7c-1.3,2.3-1.6,5.1-0.9,7.5c-0.4,2.6,0.4,5.2,2.6,7.4 c4,3.9,11,5.1,15,0.7C955.5,435,957.9,427.6,953.4,424z M856.2,359.8c0.2,1.8,0.8,3.5,2,5c4.4,5.1,13.2,3.1,14.7-3.5 c0.8-3.6-0.5-7-2.9-9.1c-0.2-0.2-0.4-0.3-0.5-0.4c-2.2-1.7-5.2-2.5-8.3-1.5c-3,1-5.5,3.6-5.5,7 C855.7,358.2,855.9,359,856.2,359.8z" class="st2"/><path d="M625.5,962.3c1.5-1.2,6.6-3.9,7.5-5.3c0-0.2,0.2-26.7,0.3-52c0.1-23.1,0.2-185.3,0.2-185.3 s37-29.7,38.2-30.6l0.4-126.5h10l-0.5,131l-37.3,30.1c0,0-0.2,159.8-0.4,181.2c-0.2,24.5-0.5,51.1-0.4,52.8 c4.1,2.9,8.2,6.4,8.3,11.8c1.2,2.7-2,12.5-4.2,15.3c-2.9,4-13.6,5.9-15.7,4.8c-5.9-0.9-10.5-6-10.3-11.8 C620.4,974.8,623.1,964.1,625.5,962.3z M627.9,976.9c1,2.7,3.2,4.6,5.9,5.2c0.2,0.1,0.4,0.2,0.6,0.2c3.4,0.5,6.6-0.3,9.1-2.7 c2.2-2.2,3.5-5.6,2.5-8.7c-1.6-5-7.6-7.4-12.4-5.8S626.1,972.2,627.9,976.9z" class="st2"/><path d="M985.7,607.4c-7.1-3.4-18.3,3.5-18.3,3.5l-17.7-13.6c0,0,0.4-75.6-1.1-75.5c-1.3-0.4-14.7-14.9-14.7-14.9 l-4.3,5.8c0,0,6.2,10.5,9.2,12.6c1.2,1.2,0.8,74.6,1,75.1c0.6,1.1,19.1,15.2,20.6,17.2c0.8,1.9-0.7,7.5,0.6,9 c-0.2,5.6,4.4,7.9,7.5,11.5c1.7,2.6,16,4,18.8,3.1c8.3-2.6,10.5-10.9,12-19.2C1000.5,614.4,992.1,610.4,985.7,607.4z M989.7,633 c-2.3,2.4-5.8,3.4-9,3.3c-7.9-0.1-15.9-7.4-11.5-15.7c4.2-8,16.9-8.9,21.1-0.4c0.7,1.4,1.2,3,1.2,4.7 C992.3,627.7,991.8,630.8,989.7,633z" class="st5"/><path d="M451.2,282.5c-1-1.7-14.2-5-18.7-1.3c-9.5,3.1-7.9,17.5-7.9,17.5s-37,46.9-41.9,48.8 c-1.8,1.6-0.9,122.1-2.4,128.8c1.6,0.1,10.9,0.4,10.9,0.4l1.2-123.2c0,0,36.5-45.2,38.4-47.1c2.4-0.9,10.5,6,16.2,1.5 C457,302.9,459.4,292.4,451.2,282.5z M446.4,301.3c-0.2,0.1-0.4,0.3-0.6,0.4c-0.8,0.7-1.9,1.2-3,1.2c-1.5,0.1-3,0.2-4.4-0.2 c-2.2-0.3-4.3-1.2-5.8-2.9c-2.9-3.3-2.9-8.4-0.4-11.9c5.2-6.8,18.5-4.9,19.2,4.6C451.5,296.1,449.4,299.6,446.4,301.3z" class="st2"/><path d="M1003.8,470c-1.4-7.4-8.8-12.8-15.8-11.4c-8.8,1.7-15.6,9.8-14,17.3c0.5,2.6,1.5,3.9-0.4,5 c-4.8,2.6-44.7,25.6-58.5,36.2h-98.4c-0.2,2.3,0.4,9.7,0.4,9.7s95.9-0.2,99.9,0c1.6,0.4,42.2-26.4,61.7-36.8 c3.1-1.7,5.8-1.9,8.6-0.9c3.7,1.3,7,0.4,10-1.4C1003.5,484,1005.4,478.4,1003.8,470z M994.3,482.8c-2.4,1.2-5.1,1.1-7.4-0.1 c-2.8-0.4-5.5-1.9-7-4.3c-2.5-3.9-1.2-9.7,2.7-12.3c5.8-3.8,14.5-0.2,16.3,6.5C999.9,476.6,998,481.1,994.3,482.8z" class="st5"/><path d="M190.6,352.5l-39-61.2c0,0-1.2-4.1,0.4-6.6c2.3-3.6,2.1-8,1.7-12.2c-1.2-6.4-6.8-12-13.2-13.3 c-12.1,1.7-18.4,8-16.8,21.2c-0.4,1.2,2.4,8.2,5.4,10.2c1.1,2.3,6.4,4.2,8.7,3.8c2.9,0.1,6,0.9,6,0.9s34.9,56.4,38.2,59.6 c0,2.7-0.4,69.5-0.4,69.5h9L190.6,352.5z M130.4,280.9c-0.9-2.2-0.8-4.8,0.4-7.3l0,0c0.5-2.4,2.2-4.7,4.5-5.8 c5.2-2.7,10.5,1.2,12.2,6.2c1,2.9,0.5,5.8-0.8,8.2c-0.2,0.4-0.4,0.7-0.6,1.1c-1.1,1.6-2.6,2.6-4.3,3.1c-1.2,0.4-2.5,0.7-3.8,0.7 C133.8,287,131.1,284.1,130.4,280.9z" class="st3"/><path d="M686.2,873.4c-2.5-4.9-2.8-10.2-1.4-14.8c0.8-3.3,5.7-8.6,9.2-9.1c6.1-0.8,7.4-0.7,11.8,0.8 c2.9,0.6,7.9,7.6,7.9,7.6l26,0.2c0,0,12.9-24.1,13-24.8c-0.4-0.6-27.6-30.4-29.2-29.7c-0.7,0.1-13.5,4.4-15.7,1.8 c-3.6-0.1-12.1-13.2-9-19.1c0.4-1.1,5.7-9.6,11.3-9.5c1.9-0.5,11.3,1.1,12.4,2.7c2.4,0.4,6.3,13.8,6.6,15.3 c0.3,0.3,35,37.1,35,37.1l-19.5,35.2l-31,0.5c0,0-4.2,9.6-9.7,10.6C701.5,878.9,687.8,877.7,686.2,873.4z M718.4,799 c0.4-0.2,0.9-0.4,1.2-0.7c4.7-3.3,3.9-9.6,0.8-13.6c-3-4-9-5.9-12.9-1.7c-1.1,1.2-1.8,2.6-2.2,4.1c-0.3,0.4-0.4,0.9-0.6,1.3 c-0.6,1.8-0.4,3.6,0.3,5.1c0.1,0.6,0.3,1.2,0.4,1.8C707.5,800.5,714,803.3,718.4,799z M700.7,872.7c0.3-0.1,0.4-0.1,0.7-0.2 c0.3,0,0.5-0.1,0.9-0.2c3.7-1,6-5,5.8-8.7c-0.4-6.9-9.1-12.5-15.4-8.6c-5.1,3.2-5.2,11-0.9,15 C694,872.1,697.5,873.4,700.7,872.7z" class="st5"/><path d="M706.6,144.2v192h-11c0,0,0.8-183.4,0.4-189.6c0-0.4-21.9-32-21.9-32l-20.7,24.6l2.4,9c0,0-0.1,9.5-0.6,11 c-2,5.6-2.8,8.6-8.9,11.8c-8.8,4.7-18.4-2.8-21.3-8.7c-4-8.2,3.5-21.4,11.9-25.3c3.4-1.6,7.3-2,7.3-2l30.3-36L706.6,144.2z M637.8,143.7c-4.2,0.7-6.8,4.3-7,8.4c0,0.4,0,0.9,0.2,1.3c0,0.2,0,0.4-0.1,0.5c-0.2,3.6,1.9,7.2,5.1,9 c3.5,1.9,7.7,1.6,10.5-1.3c3.1-3.3,3.9-9.1,1.9-13C646.3,144.8,641.9,143,637.8,143.7z" class="st3"/><path d="M558.6,980.6c-0.5-3.8-11-8.4-12.7-8.5c-1.9,0-11.7,2.2-11.7,2.2l-29.8-28.4l0.6-286H495v291.3 c0,0,25.1,24,32.6,32c-1.5,5.8,1.3,10.4,4.7,14.2c1.2,2.6,6.7,5.5,9.5,5.6c3.5,0.3,4.7,0.4,8.2,0c6.3,0.2,11.3-7.8,10.9-14.5 C561.4,987.3,558.9,981.2,558.6,980.6z M541.5,997.1c-1.6-0.3-3.1-1-4.4-2.1c-2.3-2-3.1-5.3-2.5-8.3c2.2-9.7,18.3-8.5,19.7,1.2 C555.1,994.8,546.9,1000.2,541.5,997.1z" class="st3"/><path d="M285.7,805.6l1.1-252.9H277L274.8,803l-36.6,38.8c0,0,0.7,47.4-0.9,51.5c-1.9,1.4-6.1,4.3-6.2,7.1 c-1.2,3.1-1.2,9.2-0.6,12.7c1.4,8.1,6.3,10.4,14.1,10.6c6.8,0.3,12.5-4.2,13.9-12.2c0.6-1.5-0.4-8.9-1.1-10.4 c-1.5-4.9-8.6-5.2-8.9-9c-1.1-2.2,0.2-47.6,0.2-47.6L285.7,805.6z M250.1,903.3c2.1,1.7,3.5,4.3,3.4,7.4 c-0.2,5.8-5.5,8-10.1,6.6c-3.1-0.2-5.9-1.9-7.4-5c-1.1-2.3-1.1-4.8-0.1-6.9c0-0.1,0-0.2,0.1-0.3c0.9-3.6,4.3-5.8,7.9-5.5 C246.4,899.8,248.6,901.3,250.1,903.3z" class="st5"/><path d="M129.9,540.6c-6.5,0.4-55.6,1-55.6,1l-25.1,27.4c0,0,25.6,22.3,28.5,21.6c9.8-4.4,17.4-5.8,24.5,0.4 c2,1.5,3.5,11.4,2.9,14.1c-0.5,3.8-6,9-7.1,9.8c-0.9,1.2-10.8,3.2-12.6,3.3c-2.6-1.1-7.9-4-9.6-5.1c-1.7-1.3-3-11.9-3.5-13.4 c-5.7-3.7-35.8-30-35.8-30l33.1-36.8l60.6-0.4C130.5,532.4,131.5,540.5,129.9,540.6z M80.9,605.8c2,5.8,9,6.5,13.6,3.5 c2.4-1.5,4.2-3.8,4.4-6.7c0.3-3-1.2-5.7-3.6-7.4c-4.2-3.1-10.2-2.5-12.9,1.8c-0.2,0.2-0.4,0.4-0.4,0.6 C80.5,599.9,80.1,603.2,80.9,605.8z" class="st3"/><path d="M744.9,374.7c-2.7-4.5-9-5.9-10-6.2c-5.3-1.2-13.7,5.3-15.4,10.4c-3.1,4.7,0.4,15,2.3,16 c0.9,1.6,4.9,3.7,4.9,3.7L714,427.8h-31.8c0,0-3.2-1.1-6.5-4.7c-4.6-4.3-10-2.2-14.4-1.3c-1.2-0.1-8.7,4.3-8.9,10.5 c-1.2,4.1,1.8,9.7,2.4,10.2c3.3,4.3,7.6,7.9,12.6,6.9c4.9-1,6.5-0.6,10.9-7.1c0.4-2.9,2.3-4.9,4.3-5.1c3-0.3,38.1-0.8,38.1-0.8 l16.4-35.7c0,0,7.2-4.8,7.6-6.8C745.4,392.2,749.5,382.5,744.9,374.7z M664.3,443.4c-3.9-0.8-6-4.3-5.9-7.7 c-0.6-2.9,0.5-5.8,3.3-7.4c1.7-0.9,3.7-1.1,5.6-0.7c0.7,0,1.3,0.1,2,0.2c3.1,0.7,4.9,3.1,5.3,6.1c0.1,0.2,0.1,0.4,0.2,0.6 C675.8,440.5,669.8,444.6,664.3,443.4z M733.8,393.1c-2.3,0.1-4.4-0.8-5.9-2.3c-1.7-1.1-2.7-2.9-2.6-5.1c-0.5-2-0.3-4.3,1-6.2 c1.2-1.9,3-3,5-3.5c2.9-1.1,6.3-0.4,8.7,1.9c1.3,1.2,1.9,2.7,2.1,4.3c0.4,1.1,0.7,2.2,0.7,3.4 C742.8,390.4,738.1,392.9,733.8,393.1z" class="st5"/><path d="M392.5,888.4c-2.7-4.5-9-5.9-10-6.2c-5.3-1.2-13.7,5.3-15.4,10.4c-3.1,4.7,0.4,15,2.3,16 c0.9,1.6,4.9,3.7,4.9,3.7l-12.7,29.2h-31.8c0,0-3.2-1.1-6.5-4.7c-4.6-4.3-10-2.2-14.4-1.3c-1.2-0.1-8.7,4.3-8.9,10.5 c-1.2,4.1,1.8,9.7,2.4,10.2c3.3,4.3,7.6,7.9,12.6,6.9c4.9-1,6.5-0.6,10.9-7.1c0.4-2.9,2.3-4.9,4.3-5.1c3-0.3,38.1-0.8,38.1-0.8 l16.4-35.7c0,0,7.2-4.8,7.6-6.8C392.9,905.9,397.1,896.2,392.5,888.4z M311.8,957.1c-3.9-0.8-6-4.3-5.9-7.7 c-0.6-2.9,0.5-5.8,3.3-7.4c1.7-0.9,3.7-1.1,5.6-0.7c0.7,0,1.3,0.1,2,0.2c3.1,0.7,4.9,3.1,5.3,6.1c0.1,0.2,0.1,0.4,0.2,0.6 C323.3,954.2,317.3,958.2,311.8,957.1z M381.4,906.7c-2.3,0.1-4.4-0.8-5.9-2.3c-1.7-1.1-2.7-2.9-2.6-5.1c-0.5-2-0.3-4.3,1-6.2 c1.2-1.9,3-3,5-3.5c2.9-1.1,6.3-0.4,8.7,1.9c1.3,1.2,1.9,2.7,2.1,4.3c0.4,1.1,0.7,2.2,0.7,3.4 C390.3,904.1,385.6,906.6,381.4,906.7z" class="st2"/><path d="M872.3,215.8c3.5,2.9,4.4,3.6,6.6,7.5c1.2,2.1,1,3.2,0.9,6.3c0.5,1.5-1.8,5.8-1.8,6.7 c-1,3.2-8.2,8.8-12,9.7c-3.2-0.2-6.6,0.1-9.3-1c-2.9-1.2-4.3,0.4-4.3,0.4l-30.3,39.9l0.7,53.1c0,0-12.4-0.2-9.2-0.5 c-0.4-1.2-0.6-57.4-0.6-57.4l31.5-42.4c0,0,2.5-5.1,2.6-8.4c0.2-8.5,3.8-13.5,12-15.6C863.7,212.9,868.2,214.4,872.3,215.8z M859.6,220c-0.2,0-0.3,0.1-0.4,0.1c-1,0.3-1.9,0.7-2.7,1.2l0,0c-0.4,0.3-0.8,0.5-1.1,0.9c-0.3,0.2-0.5,0.4-0.7,0.6 c-6.7,6.8-0.2,19.9,9.5,17.5c7.4-1.8,12.1-11.7,6.8-18C868,219.1,863.4,217.9,859.6,220z" class="st3"/><path d="M179.6,833c1.5-5.1,6.8-8.8,11.9-10.1c6-0.2,13.8,4.7,13.8,4.7l21.1-12.9v-44.3l-33-36l-0.4-10.6h8.8 l0.7,6.7l33.9,37.1l0.1,52.2c-9.1,5.4-18.2,12.1-27.3,17.5c-0.6,1.9-2.6,11.1-7.3,14.4c-2,1.5-13.4,1.5-17.5-0.9 C178.7,847.5,177.9,838.7,179.6,833z M188.4,847c2.7,1.8,5.8,1.3,8.2-0.3c1.9-0.6,3.5-2.1,4.6-4c1.2-2.3,1.3-4.8,0.4-6.8 c-0.5-2.7-2.2-4.9-5.1-5.9c-3.4-1.2-6.9-0.1-9.5,2.3c-2.1,2-3.8,5.1-3.7,8.2C183.6,843.8,185.6,846,188.4,847z" class="st2"/><path d="M457.9,684.5L397.7,737l-38-29.5V593.2l10.6,0.5v109.7c0,0,26.8,20.3,27.5,20.5 c1.2-0.5,50.8-44.4,51.8-45.5" class="st1"/><path d="M725.9,938.7c0,0,40.8-31.3,41.9-33.1c1.8,0,3.6-0.5,5.1,0c5.8,1.9,19.1-7.7,19.2-12.2 c1.2-4.4-2.4-15.3-5-16.8c-3.2-1.8-12.1-3.5-15.6-2.4c-0.6,0.3-11.6,2.4-11.9,6.6c-0.4,2.7-1.4,11.4-0.9,14.2 c0.5,3.3-0.6,4.8-0.6,4.8l-36.5,29.7l-82.7,1l-0.3,9L725.9,938.7z M770.9,882.4c1.5-0.8,3.2-1.2,4.9-1c1.4-0.2,2.7,0.1,4.1,1 c1.8,1.2,3.1,3.1,3.5,5.2c0.9,4.8-1.9,9.4-6.9,10.2c-1.4,0.3-2.9,0.2-4.3-0.2c-2.5-0.4-4.6-1.9-5.6-4.3 c-0.1-0.2-0.2-0.4-0.3-0.5C764.7,888.7,767.2,884.3,770.9,882.4z" class="st2"/><path d="M407.7,790.9c-1-5.3-6.8-7.1-11.3-7.7c-3-0.4-7.8,1.6-10.7,2c-3-1-38.6-30.4-38.6-30.4l0.2-191.4l-10-0.7 v197.5c0,0,39.4,30.7,40.8,34.4c0.4,0.9,1.4,9.5,3.4,12.2c1.6,2.7,12,6.6,14.4,6.8c3.5-0.1,10.7-2.2,11.5-5.9 C409.5,802.1,410.4,796.4,407.7,790.9z M403.1,800.7c-1.5,4.3-5.9,7-10.4,5.7c-2.3-0.7-4.8-2.1-6-4.3c-0.8-1.4-1-2.8-0.8-4.3 c-0.2-1.2-0.1-2.3,0.3-3.4c1.7-5.1,7.8-7.5,12.5-4.9C402.6,791.7,404.6,796.5,403.1,800.7z" class="st2"/><path d="M784.4,672.6c0,0-82.4,61.4-87,62c-2.2-2.9-15.1-4.3-18.5-2.4c-2.5,0.9-8.5,6.2-9.4,9.4 c-1.2,4.1-1.1,11.4,4.2,15.7c2.2,1.5,6.5,3.5,8.4,4c4.2,1.3,7.1,0.3,11.1-1.6c5.8-2.2,7.4-9.1,8.4-14c1.3-1.8,90-65.7,90-65.7 L784.4,672.6z M692.8,752.3c-1.2,3.4-4.3,5-7.4,4c-4.3-0.5-8.3-3.2-9.5-7.6c-0.3-1-0.4-1.9-0.2-2.7c-0.1-1.5,0.2-3.1,1.2-4.5 c3.7-5.9,12.8-4.4,15.5,1.3c0.3,0.4,0.4,0.9,0.6,1.4c0.4,1.2,0.5,2.4,0.4,3.6C693.3,749.3,693.3,750.8,692.8,752.3z" class="st3"/><path d="M550.8,829.8c-3.7,1.8-8.6,7.8-8.3,9.2c-1.1,2.6,0.3,11.4,2.4,12.8c2.1,1.7,6,3.3,7.4,5.8 c0.5,2.3,0.4,28.2,0.4,28.2l19.7,22.2c0,0-1,13.7,6,18.9c4.9,3.4,18.4-0.3,19.4-1.7c2.4-1.5,5.7-7.2,5.4-10.3 c-0.4-3.6-1.8-10-5.8-13.6c-3-4.3-16.3-1.9-18.3-2.5c-3.5-1.5-17.6-18.3-17.6-18.3s-0.9-22.8,0.3-23.5c5.8-3.5,8.8-9.5,9.1-15.6 c0.5-3.7-1.3-8.5-3.5-11c-2.4-1.5-3.5-2.7-6.5-2.4C557.1,827.5,554,828.3,550.8,829.8z M590.1,904c2.3,0.6,3.7,2.1,4.6,4.1 c0.5,0.6,1,1.4,1.3,2.1c3.5,7.3-3.6,13.6-10.7,12.1c-3.2-0.6-5.8-3-6.6-6.1c-1-3.4,0.4-6.8,2.7-9.2 C583.6,904.7,587,903.2,590.1,904z M565.1,839.9c0.2,0.7,0.4,1.5,0.4,2.3c0.4,6.9-6.9,11.2-12.9,7.6c-6.3-3.7-5.4-13.5,1.4-16 C558.8,832.1,564.5,835.3,565.1,839.9z" class="st1"/><path d="M371.1,56.2c-1.8-3.7-7.8-8.6-9.2-8.3c-2.6-1.1-11.4,0.3-12.8,2.4c-1.7,2.1-3.3,6-5.8,7.4 c-2.3,0.5-28.2,0.4-28.2,0.4L293,77.8c0,0-13.7-1-18.9,6c-3.4,4.9,0.3,18.4,1.7,19.4c1.5,2.4,7.2,5.7,10.3,5.4 c3.6-0.4,10-1.8,13.6-5.8c4.3-3,1.9-16.3,2.5-18.3c1.5-3.5,18.3-17.6,18.3-17.6s22.8-0.9,23.5,0.3c3.5,5.8,9.5,8.8,15.6,9.1 c3.7,0.5,8.5-1.3,11-3.5c1.5-2.4,2.7-3.5,2.4-6.5C373.4,62.6,372.6,59.4,371.1,56.2z M297,95.6c-0.6,2.3-2.1,3.7-4.1,4.6 c-0.6,0.5-1.4,1-2.1,1.3c-7.3,3.5-13.6-3.6-12.1-10.7c0.6-3.2,3-5.8,6.1-6.6c3.4-1,6.8,0.4,9.2,2.7 C296.3,89,297.8,92.5,297,95.6z M361,70.6c-0.7,0.2-1.5,0.4-2.3,0.4c-6.9,0.4-11.2-6.9-7.6-12.9c3.7-6.3,13.5-5.4,16,1.4 C368.8,64.3,365.6,70,361,70.6z" class="st1"/><path d="M866.3,644.2c0.8-1.4,5.8-6.5,6.4-6.6c1.2-1.4,8.5-2.4,14.3,0c3.2,2.6,6.4,4.3,7.8,9.4 c-0.2,2.4,1,11.5-1.2,14.2c-2.6,3.2-3.5,4.7-3.5,4.7l15,20.1c0,0,20.9,1.2,21.9-0.3c1.6-2.2,9.4-9.6,20.3-6.8 c8,3.4,10.9,14.9,10.6,16.6c1.2,7.2-11.6,13-18.6,12c-3.7,0.8-12.9-9.4-12.3-11.3c-0.6-0.3-25.9,0-25.9,0l-21.1-27.8 c0,0-8.7-0.2-12-6.4C863.8,656.3,864.6,651.2,866.3,644.2z M935.6,699c1.8,2.5,4.9,3.7,7.9,3.5c7.5-0.4,11.1-9.5,6.1-15.1 c-4.7-5.3-14.4-2.9-15.7,4.1C933.3,694.1,933.9,697,935.6,699z M875.3,658.4c2,1.9,5,2.8,7.7,2c3.5-1,5.7-4.6,6-8 c0.6-6.8-7.9-11.3-13-6.8c-2,1.3-3.5,3.5-3.6,6C872.4,654.2,873.5,656.7,875.3,658.4z" class="st2"/><path d="M128.2,412.2c1.4-0.8,6.5-5.8,6.6-6.4c1.4-1.2,2.4-8.5,0-14.3c-2.6-3.2-4.3-6.4-9.4-7.8 c-2.4,0.2-11.5-1-14.2,1.2c-3.2,2.6-4.7,3.5-4.7,3.5l-20.1-15c0,0-1.2-20.9,0.3-21.9c2.2-1.6,9.6-9.4,6.8-20.3 c-3.4-8-14.9-10.9-16.6-10.6c-7.2-1.2-13,11.6-12,18.6c-0.8,3.7,9.4,12.9,11.3,12.3c0.3,0.6,0,25.9,0,25.9l27.8,21.1 c0,0,0.2,8.7,6.4,12C116.1,414.7,121.2,413.8,128.2,412.2z M73.4,342.9c-2.5-1.8-3.7-4.9-3.5-7.9c0.4-7.5,9.5-11.1,15.1-6.1 c5.3,4.7,2.9,14.4-4.1,15.7C78.3,345.2,75.5,344.6,73.4,342.9z M114,403.2c-1.9-2-2.8-5-2-7.7c1-3.5,4.6-5.7,8-6 c6.8-0.6,11.3,7.9,6.8,13c-1.3,2-3.5,3.5-6,3.6C118.3,406.1,115.7,405,114,403.2z" class="st2"/><path d="M382.3,273.7c-3-2.7-3.5-7.9-3.6-8.2c-0.1-0.2-1.1-7.1-0.1-8.9c0.2-0.3,2.1-5.1,4.5-7.4 c0.9-0.8,4.1-3.1,4.5-3.4l-0.1-10.7l23.8-24.5l0.1-16.2c0,0-1.9-0.9-2.5-1.6c-1-1.4-1.1-1.5-1.9-3.3c-1.5-3-1.5-6.1-1.3-6.9 c1.9-9.8,3-13.2,14.6-13.2c4.1,0,8.9,8.8,8.7,11.6c-0.3,5-1.2,8-2.4,9.7c-1.6,2.4-5.4,3.6-5.4,3.6l-0.3,19.2 c0,0-2.4,2.5-3.6,3.6c-4.3,3.9-21.2,21.4-21.2,21.4s-0.1,5.6,0.1,6.8c5,1,11.9,7.8,11.7,17.5c-0.2,7.5-8.3,14-15.6,14.5 C392.2,277.5,385.9,276.9,382.3,273.7z M421.6,188.3c1.4-1.3,2-3.1,2.2-4.9c1.1-2.5,0.8-5.3-1.2-7.2c-2.2-2-5.6-2.2-8.2-0.9 c-4.8,2.5-5.4,9.4-1.4,12.9C415.4,190.5,419.1,190.7,421.6,188.3z M394,270.3c3.2-0.6,5.8-3.5,6.6-6.6c0.2-0.8,0.3-1.7,0.3-2.6 c0.3-2.1-0.2-4.3-1.8-6.1c-1.9-2.1-5-3.2-7.8-2.4c-4.2,1.2-6.6,5.8-6.4,10C385.2,267.1,389.1,271.3,394,270.3z" class="st5"/><path d="M672.9,297.8c3-2.7,3.5-7.9,3.6-8.2c0.1-0.2,1.1-7.1,0.1-8.9c-0.2-0.3-2.1-5.1-4.5-7.4 c-0.9-0.8-4.1-3.1-4.5-3.4l0.1-10.7l-23.8-24.5l-0.1-16.2c0,0,1.9-0.9,2.5-1.6c1-1.4,1.1-1.5,1.9-3.3c1.5-3,1.5-6.1,1.3-6.9 c-1.9-9.8-3-13.2-14.6-13.2c-4.1,0-8.9,8.8-8.7,11.6c0.3,5,1.2,8,2.4,9.7c1.6,2.4,5.4,3.6,5.4,3.6l0.3,19.2c0,0,2.4,2.5,3.6,3.6 c4.3,3.9,21.2,21.4,21.2,21.4s0.1,5.6-0.1,6.8c-5,1-11.9,7.8-11.7,17.5c0.2,7.5,8.3,14,15.6,14.5 C663.1,301.6,669.3,301,672.9,297.8z M633.7,212.4c-1.4-1.3-2-3.1-2.2-4.9c-1.1-2.5-0.8-5.3,1.2-7.2c2.2-2,5.6-2.2,8.2-0.9 c4.8,2.5,5.4,9.4,1.4,12.9C639.9,214.6,636.2,214.8,633.7,212.4z M661.3,294.4c-3.2-0.6-5.8-3.5-6.6-6.6 c-0.2-0.8-0.3-1.7-0.3-2.6c-0.3-2.1,0.2-4.3,1.8-6.1c1.9-2.1,5-3.2,7.8-2.4c4.2,1.2,6.6,5.8,6.4,10 C670,291.2,666.1,295.3,661.3,294.4z" class="st1"/><path d="M805.5,140.7c-3.4,4.1-3.5,16.2-1.8,20.4c2,3,10.2,9.2,10.2,9.2l-1.1,274.4l9.7-0.5l0.1-273.7 c1.3-1.5,9.5-6.3,10.8-15.8C836.3,140.4,819.1,129.2,805.5,140.7z M822,162.4c-0.2,0.3-0.4,0.5-0.8,0.8 c-5.5,4.8-10.2-1-11.5-6.2c-0.1-0.3-0.1-0.4-0.2-0.7c-0.7-1.6-1.1-3.3-1.2-5c-0.2-5.3,3.5-8.8,8.4-8.3c1.4-0.2,2.8-0.1,4.2,0.3 c4,1.1,7,4.4,7.1,8.6C828.1,155.9,825.7,160.6,822,162.4z" class="st3"/><path d="M204.6,725.5c4.1-2.9,29.6-27.5,29.6-27.5l0.8-144.8h-9.9l-1.3,141.9c0,0-23.8,21.1-25.3,22.6" class="st2"/><path d="M128.5,191.6c-5.1,0.4-9.7,9-10,14.5c-0.6,8.6,9.7,19.1,19.5,16.9c4.9-1.1,14.4-9.1,14.5-10.9l50.4,0.4 v-5.1l4-4.4l-54.3-0.3c-0.4-1.5-5.5-8.2-10.4-10.4C139.8,191.1,131.9,189.6,128.5,191.6z M140.1,198.1c1.9,0.4,3.7,1.5,4.9,3.1 c1.1,1.6,1.3,3.3,1.2,5.1c0.3,1,0.2,2-0.4,3.2c-1,1.8-2.5,3.1-4.3,4c-0.4,0.2-0.7,0.4-1.1,0.5c-3.3,2.2-7.3,3.5-10.9,1.4 c-3.8-2.3-6-7.2-4.9-11.5c1-3.5,4.3-5.7,7.7-6.1c1.2-0.2,2.5-0.2,3.7,0C137.4,197.7,138.8,197.8,140.1,198.1z" class="st3"/><path d="M123.8,497.6L97,496.7c0,0-2.7-3.8-4.8-6c-2.3-4.2-6.1-5.5-10.6-5.2c-1.4-0.1-2.9-0.1-4.3-0.2 c-6.9-0.2-13.6,6.1-14.1,13.3c-0.5,1.4-0.8,3.8-0.4,5.2c1,3.5,1,6.5,3.3,8.2c5.7,3.5,9.1,4.5,14.8,5.1 c8.1,0.4,12.6-3.3,16.2-9.9c6.1-0.5,27.5,0.3,27.5,0.3L123.8,497.6z M84.6,511.1c-4.6,1.5-10.4-0.6-12.9-4.9 c-0.9-1.6-1.3-3.5-1.1-5.3c0.2-3.6,2.3-7.2,6.4-8.2c4.8-1.2,11.2,0.4,12.9,5.4C91.7,502.7,89.6,509.4,84.6,511.1z" class="st2"/><path d="M339.7,841.2c-1.9-1.4-12.3-3-12.9-2.7c-7.2-0.1-14.6,6.5-19.6,10.6c-3.5,0.1-61.1-0.4-61.1-0.4v8.6 l61.1-0.4c0,0,1.3,2.9,2,4.3c1.4,3,10.4,7.8,12.2,8c1.4-0.1,2.8-0.1,4.3-0.2c1.9,0.5,11.4-2.3,12.5-4.5c1.5-1.9,2.9-2.7,3.9-5.9 c1.5-0.9,1-6.4,1.2-6.9C344,848.9,342.3,843,339.7,841.2z M332.7,862c-2.9,1.9-6.6,1.9-9.7,0.5c-2.8-0.6-5.4-2.3-6.6-5.1 c-1.8-4.2,0.4-9.2,4.2-11.4c5.5-3.2,14.7-1.4,16.5,5.5C338,855.4,336.1,859.9,332.7,862z" class="st5"/><path d="M938.3,292c-3.1-4-16.5-3.4-18.8-3.7c-4.8,1.2-5.3,0.4-8.2,4.9c-1.5,1.2-2.6,8-2.6,8l-90.9,1 c0,0,0.1,8.4,0.1,9.9c-0.6,0.8,90.7,0.4,90.7,0.4s3.4,6,7.4,6.6c1.8,1.4,12.9,1.2,15-0.3c5.2-2.6,6.8-4.8,7.9-6.7 c1.7-3,3.1-7.9,3-8.8C941.4,299,940.3,294.8,938.3,292z M934,304.3c0.1,1.9-0.4,3.8-1.7,5.4c-3.8,5.4-12.3,6.1-16.2,0.3 c-3.8-5.7,0.2-13.9,6.7-15.1c3.9-0.7,8.1,1,10.1,4.4C933.8,300.9,934.2,302.6,934,304.3z" class="st3"/><path d="M714.2,646.2c-0.3,0.4-5,0.6-5.8,1.4c-4,3.4-4.4,4.4-5.4,5.5c0.4-0.4-1.6,1.5-1.9,4 c-0.4,2.7-0.7,5.6,0.1,8.2c0,1.9,4,8.2,5.9,9.1c1.3,2.1,11,2.9,14.4,1.6c2.1,0.4,8.3-6.6,8.9-8.1c2.8-5.9,3.5-12.2-1-17.4 c-1-1.1-3.3-3.6-3.3-3.6l-0.9-91c0,0-7.3-0.4-10.5-1C713.3,556.2,715.6,644.2,714.2,646.2z M724.7,654.6 c2.1,3.5,2.5,8.6,0.1,12.1c-1.2,1.7-3.3,2.8-5.4,3.4c-1.4,0.5-2.9,0.8-4.5,0.4c-6.8-1.3-8.1-9.1-4.7-14.3 c1.5-2.3,3.6-4.3,6.3-5.1C719.7,650.1,722.9,651.7,724.7,654.6z" class="st2"/><path d="M178.4,619.5l-7.3-5.9c0,0-68.1,51.1-69.4,53.5c-1.9,0.2-12.5-1.8-15.7,0.9c-3.3,2.7-7.9,12-7.8,14 c0.6,4.2,4.4,11.5,8.7,12.6c2.3,1.5,9.9,2,11.7,1.2c0.5-0.1,9.7-5.9,10.2-13c0.2-2.2-0.5-7.2-0.5-7.2L178.4,619.5z M102.5,685.4 c-1.2,4.7-6.7,7.5-11.3,5.9c-2.2-0.8-4.1-2.4-5.3-4.3c-1.9-2.3-3-5.8-1.2-8.5c0.1-0.2,0.2-0.3,0.4-0.4c0.2-0.5,0.4-1.1,0.6-1.6 c1.7-3.4,5.5-5.3,9.2-4.5c1.2,0.3,2.2,0.8,3.2,1.5c1.2,0.4,2.3,1,3.2,1.9c2,2.1,2.4,5.1,1.6,7.7 C102.8,683.8,102.7,684.6,102.5,685.4z" class="st1"/><path d="M281.8,168c-5-4.1-12.7-5-18.5-1.4c-3.6,2.1-5.1,5.3-5.9,8.9c-1.5,7.3-1,11.4,4.4,16.6 c1.5,1.4,6,3.6,6.2,5.6c0.9,9.1,1.1,91.5,1.1,91.5l9.3,0.1l-0.1-92.3c0,0,1.3-3.8,3.7-5.5C288.2,187,289.6,174.3,281.8,168z M280.2,182.2c-0.7,2.7-2.8,5-5.5,5.8c-0.1,0-0.2,0-0.3,0.1c-4.1,3.2-9.7,0.1-11.3-5.1c-1.2-3.8,0.5-7.7,3.5-9.9 c0.2-0.2,0.3-0.4,0.4-0.6c0.9-1.1,2.3-1.4,3.6-1.2c0.4-0.1,0.6-0.1,1-0.1C277.5,170.7,281.7,176.7,280.2,182.2z" class="st2"/><polygon points="359.6 593.2 377 570 387.7 570 370.3 593.7" class="st1"/><polyline points="171.1 613.6 171.1 561.4 178.4 561.4 178.4 619.5" class="st1"/><polyline points="791.5 680 753.1 575 741.4 577.3 781.8 685.3" class="st3"/><polygon points="540.7 339.8 480.6 399.9 474.5 393.8 534.6 333.8" class="st5"/></g><g><path d="M428.3,622.8v5.4h-10.8v-10.7l5.3-5.5h37.7l5.3,5.5v16.2l-30,21.5h30v10.8h-48.4v-10.8l37.7-26.9v-5.5 H428.3z" class="st5"/><path d="M477.3,665.9l-5.3-5.3v-43.1l5.3-5.5h37.7l5.3,5.5v43.1l-5.3,5.3H477.3z M502.8,622.8h-19.9v25.3 L502.8,622.8z M509.7,630l-19.6,25.1h19.6V630z" class="st5"/><path d="M536.6,665.9v-43.1h-10.8V612h21.5v53.9H536.6z" class="st5"/><path d="M555,617.5l5.3-5.5H598l5.3,5.5v43.1l-5.3,5.3h-37.7l-5.3-5.3v-10.8h10.8v5.3h26.9v-10.7h-32.3L555,639 V617.5z M592.6,633.6v-10.9h-26.9v10.9H592.6z" class="st5"/></g><path d="M876.9,589.2l-32.6-42h-8.5v42H723.5l-22.9-22.9v22.9H608l-18.8-18.7v18.7h-38.6v-65.3h-49.9v65.3h-38.6 v-65.3h-29.5v-11.3l-7.3-7.3h-24v83.9H273l-28.9-28.9l-28.9,28.9H116V420.1h99.2l32.6,32.6v14h33.8v76.6l7.3,7.3h37.9v-83.9 h114.5l20.8,20.9v-67.4h38.6v65.2h49.9v-65.2h38.6v46.5h81.4l26.4,26.5l26.4-26.5h73.7v-46.5h38.6v88.5h8.5l32.6-42h49L878.2,528 l47.7,61.2H876.9z M797.2,550.6v-45.3h-57.6l-7.3,7.3v30.6l7.3,7.3H797.2z M661.9,550.6v-3.3H624l-1.7,1.7l1.6,1.6H661.9z M199.2,550.6l10-10v-71.8l-10-10h-44.5v91.8H199.2z M589.3,527.4l18.8-18.8h49.9l-3.3-3.3h-65.3V527.4z" class="st9"/><g><path d="M237.8,552.5l-26.7,26.7H126V430.1h85.1l26.7,26.7V552.5z M144.6,560.6h58.7l15.9-15.9v-80.1l-15.9-15.9 h-58.7V560.6z" class="st13"/><path d="M252.9,476.6h18.6v70.7l13.2,13.2h52.1v-83.9h18.6v102.6h-78.4L252.9,555V476.6z" class="st13"/><path d="M461.3,513.9h-18.6v-5.4l-13.1-13.2h-38.1v83.9h-18.6V476.6h64.4l24.1,24.2V513.9z" class="st13"/><path d="M560.6,579.2v-65.3h-69.9v65.3h-18.6V430.1h18.6v65.2h69.9v-65.2h18.6v149.1H560.6z" class="st13"/><path d="M690.6,579.2h-78.4L588,555.1v-12.4l24.2-24.2h59.8v-10.1l-13.2-13.2h-61.3v-18.6h69.1l24.1,24.2V579.2z M608.2,549l11.6,11.6h52.1v-23.3h-52.1L608.2,549z" class="st13"/><path d="M735.4,495.3l-13.2,13.2v38.9l13.2,13.2h56.7v18.6h-64.4l-24.1-24.1v-54.3l24.1-24.2h64.4v18.6H735.4z" class="st13"/><path d="M849.2,518.6l32.6-42h23.6L865.5,528l39.9,51.2h-23.6l-32.6-42h-23.4v42h-18.6V430.1h18.6v88.5H849.2z" class="st13"/></g></g></g></switch></svg>