<svg xmlns="http://www.w3.org/2000/svg" xmlns:svg="http://www.w3.org/2000/svg" id="svg16" width="431" height="161" version="1.1" viewBox="0 0 431 161"><metadata id="metadata20"/><title id="title2">Hack Productions</title><g id="Page-1" fill="none" fill-rule="evenodd" stroke="none" stroke-width="1"><rect id="Rectangle" width="431" height="161" x="0" y="0" fill="#292929" rx="8"/><path id="&gt;HACK" fill="#FFF" fill-rule="nonzero" d="M54.65,80.2 L90.35,66.625 L90.35,56.875 L54.65,43.3 L54.65,52.6 L79.625,61.75 L54.65,70.825 L54.65,80.2 Z M134.525,88 L134.525,66.475 L158.375,66.475 L158.375,88 L170.525,88 L170.525,35.5 L158.375,35.5 L158.375,56.2 L134.525,56.2 L134.525,35.5 L122.375,35.5 L122.375,88 L134.525,88 Z M188.525,88 L193.175,76.75 L217.55,76.75 L222.2,88 L234.95,88 L211.475,35.5 L199.475,35.5 L176.075,88 L188.525,88 Z M213.725,67.525 L197.075,67.525 L205.4,47.425 L213.725,67.525 Z M264.8,88.9 C273.95,88.9 281.525,85.6 286.475,79.525 L278.675,72.325 C275.15,76.45 270.725,78.55 265.475,78.55 C255.65,78.55 248.675,71.65 248.675,61.75 C248.675,51.85 255.65,44.95 265.475,44.95 C270.725,44.95 275.15,47.05 278.675,51.1 L286.475,43.9 C281.525,37.9 273.95,34.6 264.875,34.6 C248.525,34.6 236.375,45.925 236.375,61.75 C236.375,77.575 248.525,88.9 264.8,88.9 Z M306.725,88 L306.725,74.725 L313.775,67.375 L330.575,88 L344.75,88 L321.725,58.9 L343.475,35.5 L329.975,35.5 L306.725,60.025 L306.725,35.5 L294.65,35.5 L294.65,88 L306.725,88 Z"/><path id="PRODUCTIONS" fill="#FFF" fill-rule="nonzero" d="M125.016,129 L125.016,121.928 L131.032,121.928 C136.728,121.928 140.184,119.048 140.184,114.28 C140.184,109.48 136.728,106.6 131.032,106.6 L122.648,106.6 L122.648,129 L125.016,129 Z M130.968,119.848 L125.016,119.848 L125.016,108.648 L130.968,108.648 C135.448,108.648 137.816,110.696 137.816,114.28 C137.816,117.8 135.448,119.848 130.968,119.848 Z M147.672,129 L147.672,121.896 L153.688,121.896 C154.328,121.896 154.904,121.864 155.48,121.8 L160.6,129 L163.192,129 L157.72,121.32 C160.984,120.264 162.84,117.8 162.84,114.28 C162.84,109.48 159.384,106.6 153.688,106.6 L145.304,106.6 L145.304,129 L147.672,129 Z M153.624,119.88 L147.672,119.88 L147.672,108.648 L153.624,108.648 C158.104,108.648 160.472,110.696 160.472,114.28 C160.472,117.8 158.104,119.88 153.624,119.88 Z M178.232,129.192 C184.952,129.192 189.976,124.36 189.976,117.8 C189.976,111.24 184.952,106.408 178.232,106.408 C171.448,106.408 166.456,111.272 166.456,117.8 C166.456,124.328 171.448,129.192 178.232,129.192 Z M178.232,127.08 C172.824,127.08 168.792,123.144 168.792,117.8 C168.792,112.456 172.824,108.52 178.232,108.52 C183.608,108.52 187.608,112.456 187.608,117.8 C187.608,123.144 183.608,127.08 178.232,127.08 Z M204.408,129 C211.576,129 216.408,124.392 216.408,117.8 C216.408,111.208 211.576,106.6 204.408,106.6 L195.288,106.6 L195.288,129 L204.408,129 Z M204.28,126.952 L197.656,126.952 L197.656,108.648 L204.28,108.648 C210.232,108.648 214.072,112.424 214.072,117.8 C214.072,123.176 210.232,126.952 204.28,126.952 Z M230.744,129.192 C236.472,129.192 239.928,125.864 239.928,119.432 L239.928,106.6 L237.624,106.6 L237.624,119.336 C237.624,124.648 235.128,127.08 230.744,127.08 C226.392,127.08 223.896,124.648 223.896,119.336 L223.896,106.6 L221.528,106.6 L221.528,119.432 C221.528,125.864 225.016,129.192 230.744,129.192 Z M256.792,129.192 C260.088,129.192 263.032,128.072 265.016,125.896 L263.512,124.392 C261.688,126.28 259.448,127.08 256.888,127.08 C251.48,127.08 247.416,123.112 247.416,117.8 C247.416,112.488 251.48,108.52 256.888,108.52 C259.448,108.52 261.688,109.32 263.512,111.176 L265.016,109.672 C263.032,107.496 260.088,106.408 256.824,106.408 C250.072,106.408 245.08,111.24 245.08,117.8 C245.08,124.36 250.072,129.192 256.792,129.192 Z M276.504,129 L276.504,108.648 L284.376,108.648 L284.376,106.6 L266.264,106.6 L266.264,108.648 L274.136,108.648 L274.136,129 L276.504,129 Z M290.52,129 L290.52,106.6 L288.152,106.6 L288.152,129 L290.52,129 Z M307.608,129.192 C314.328,129.192 319.352,124.36 319.352,117.8 C319.352,111.24 314.328,106.408 307.608,106.408 C300.824,106.408 295.832,111.272 295.832,117.8 C295.832,124.328 300.824,129.192 307.608,129.192 Z M307.608,127.08 C302.2,127.08 298.168,123.144 298.168,117.8 C298.168,112.456 302.2,108.52 307.608,108.52 C312.984,108.52 316.984,112.456 316.984,117.8 C316.984,123.144 312.984,127.08 307.608,127.08 Z M327.032,129 L327.032,110.824 L341.432,129 L343.384,129 L343.384,106.6 L341.048,106.6 L341.048,124.776 L326.616,106.6 L324.664,106.6 L324.664,129 L327.032,129 Z M356.856,129.192 C362.584,129.192 365.208,126.376 365.208,123.08 C365.208,114.92 351.416,118.632 351.416,112.488 C351.416,110.248 353.24,108.424 357.336,108.424 C359.32,108.424 361.56,109.032 363.48,110.28 L364.28,108.392 C362.488,107.144 359.864,106.408 357.336,106.408 C351.64,106.408 349.08,109.256 349.08,112.552 C349.08,120.84 362.872,117.064 362.872,123.208 C362.872,125.416 361.048,127.176 356.856,127.176 C353.912,127.176 351.064,126.024 349.464,124.456 L348.536,126.28 C350.2,128.008 353.496,129.192 356.856,129.192 Z"/></g></svg>